<svg width="46" height="46" viewBox="0 0 46 46" fill="none" xmlns="http://www.w3.org/2000/svg">
<path fill-rule="evenodd" clip-rule="evenodd" d="M23 0C10.304 0 0 10.304 0 23C0 35.696 10.304 46 23 46C35.673 46 46 35.696 46 23C46 10.304 35.673 0 23 0ZM38.1915 10.603C41.0229 14.0509 42.5902 18.3633 42.6334 22.8246C41.9836 22.701 35.4976 21.3785 28.9628 22.2008C28.8133 21.8787 28.6867 21.528 28.5372 21.1801C28.1376 20.2314 27.6891 19.2596 27.2406 18.3339C34.4741 15.3927 37.7689 11.1521 38.1944 10.6001L38.1915 10.603ZM23 3.3925C27.9881 3.3925 32.5536 5.26125 36.0238 8.33175C35.673 8.832 32.7031 12.7966 25.7197 15.4157C22.4998 9.50475 18.9347 4.66325 18.3856 3.91575C19.8982 3.56258 21.4468 3.38697 23 3.3925ZM14.6424 5.23825C17.2749 8.88676 19.707 12.6759 21.9276 16.5888C12.7477 19.0325 4.64025 18.9836 3.76625 18.9836C4.39833 16.0101 5.70876 13.2227 7.59532 10.839C9.48189 8.45522 11.8936 6.53947 14.6424 5.24113V5.23825ZM3.34363 23.0288V22.425C4.19175 22.4538 13.7224 22.5774 23.5261 19.6334C24.0982 20.7288 24.6215 21.8529 25.1217 22.9741L24.3455 23.1984C14.2198 26.4673 8.832 35.397 8.38062 36.1474C5.13711 32.5467 3.34263 27.872 3.34363 23.0259V23.0288ZM23 42.6564C18.6345 42.6632 14.3928 41.2054 10.9537 38.5164C11.2987 37.7919 15.2921 30.1099 26.3666 26.243C26.4184 26.2171 26.4414 26.2171 26.4931 26.1941C28.3602 31.0137 29.7628 36.0005 30.682 41.0866C28.2555 42.1293 25.641 42.6635 23 42.6564ZM33.9538 39.2897C33.7525 38.0909 32.7031 32.3553 30.1358 25.2943C36.2969 24.3225 41.6846 25.9181 42.3574 26.1424C41.9383 28.795 40.9752 31.3323 39.5285 33.5949C38.0818 35.8574 36.1829 37.7963 33.9509 39.2897H33.9538Z" fill="#ABB2BF"/>
</svg>
