<svg width="28" height="40" viewBox="0 0 28 40" fill="none" xmlns="http://www.w3.org/2000/svg">
<path d="M14 20C14 18.2319 14.7375 16.5362 16.0503 15.286C17.363 14.0357 19.1435 13.3333 21 13.3333C22.8565 13.3333 24.637 14.0357 25.9497 15.286C27.2625 16.5362 28 18.2319 28 20C28 21.7681 27.2625 23.4638 25.9497 24.714C24.637 25.9643 22.8565 26.6667 21 26.6667C19.1435 26.6667 17.363 25.9643 16.0503 24.714C14.7375 23.4638 14 21.7681 14 20ZM0 33.3333C0 31.5652 0.737498 29.8695 2.05025 28.6193C3.36301 27.369 5.14348 26.6667 7 26.6667H14V33.3333C14 35.1014 13.2625 36.7971 11.9497 38.0474C10.637 39.2976 8.85652 40 7 40C5.14348 40 3.36301 39.2976 2.05025 38.0474C0.737498 36.7971 0 35.1014 0 33.3333ZM14 0V13.3333H21C22.8565 13.3333 24.637 12.631 25.9497 11.3807C27.2625 10.1305 28 8.43478 28 6.66667C28 4.89856 27.2625 3.20286 25.9497 1.95262C24.637 0.702379 22.8565 0 21 0L14 0ZM0 6.66667C0 8.43478 0.737498 10.1305 2.05025 11.3807C3.36301 12.631 5.14348 13.3333 7 13.3333H14V0H7C5.14348 0 3.36301 0.702379 2.05025 1.95262C0.737498 3.20286 0 4.89856 0 6.66667ZM0 20C0 21.7681 0.737498 23.4638 2.05025 24.714C3.36301 25.9643 5.14348 26.6667 7 26.6667H14V13.3333H7C5.14348 13.3333 3.36301 14.0357 2.05025 15.286C0.737498 16.5362 0 18.2319 0 20Z" fill="#ABB2BF"/>
</svg>
